<svg width="24" height="25" viewBox="0 0 24 25" fill="none" xmlns="http://www.w3.org/2000/svg"><path fill-rule="evenodd" clip-rule="evenodd" d="M12 4.654c2.67 0 2.985.01 4.04.058.974.045 1.504.208 1.856.345.466.18.8.398 1.15.747.35.35.566.683.747 1.15.137.352.3.881.344 1.856.048 1.054.059 1.37.059 4.04 0 2.669-.01 2.985-.059 4.04-.044.974-.207 1.503-.344 1.855-.181.467-.398.8-.748 1.15-.35.35-.683.566-1.15.748-.351.137-.88.3-1.855.344-1.054.048-1.37.058-4.04.058s-2.986-.01-4.04-.058c-.974-.044-1.504-.207-1.856-.344a3.097 3.097 0 0 1-1.15-.748 3.097 3.097 0 0 1-.747-1.15c-.137-.352-.3-.881-.344-1.856-.048-1.054-.059-1.37-.059-4.04 0-2.669.01-2.985.059-4.039.044-.975.207-1.504.344-1.856.181-.467.398-.8.748-1.15.35-.35.683-.566 1.15-.747.351-.137.88-.3 1.855-.345 1.055-.048 1.37-.058 4.04-.058m0-1.801c-2.715 0-3.055.011-4.122.06-1.064.049-1.79.217-2.426.465A4.9 4.9 0 0 0 3.68 4.53 4.9 4.9 0 0 0 2.528 6.3c-.247.636-.416 1.363-.465 2.427-.048 1.066-.06 1.407-.06 4.122s.012 3.055.06 4.121c.049 1.064.218 1.791.465 2.427a4.9 4.9 0 0 0 1.153 1.77 4.9 4.9 0 0 0 1.77 1.154c.637.247 1.363.416 2.427.464 1.067.049 1.407.06 4.122.06s3.055-.011 4.122-.06c1.064-.048 1.79-.217 2.426-.464a4.9 4.9 0 0 0 1.771-1.153 4.9 4.9 0 0 0 1.153-1.771c.247-.636.416-1.363.465-2.427.048-1.066.06-1.406.06-4.121 0-2.715-.012-3.056-.06-4.122-.049-1.064-.218-1.79-.465-2.427a4.901 4.901 0 0 0-1.153-1.77 4.9 4.9 0 0 0-1.77-1.153c-.637-.248-1.363-.416-2.427-.465-1.067-.049-1.407-.06-4.122-.06" fill="#5F6368"/><path fill-rule="evenodd" clip-rule="evenodd" d="M12 7.716a5.134 5.134 0 1 0 0 10.267 5.134 5.134 0 0 0 0-10.267zm0 8.466a3.332 3.332 0 1 1 0-6.665 3.332 3.332 0 0 1 0 6.665zM18.536 7.513a1.2 1.2 0 1 1-2.4 0 1.2 1.2 0 0 1 2.4 0" fill="#5F6368"/></svg>