<svg width="196" height="32" viewBox="0 0 196 32" fill="none" xmlns="http://www.w3.org/2000/svg">
<g clip-path="url(#clip0_1584_8456)">
<path d="M101.828 6.82812H104.031L99.625 23.2344H97.4688L93.9531 12.4063H93.8594L90.2969 23.2344H88.1406L83.5938 6.82812H85.7969L89.2656 19.7188H89.3594L92.9219 9.03125H94.8906L98.4531 19.7188H98.5469L101.828 6.82812Z" fill="#5F6368"/>
<path d="M103.797 17.6094C103.797 15.8906 104.344 14.4688 105.437 13.3438C106.531 12.2188 107.922 11.6563 109.609 11.6563C111.297 11.6563 112.672 12.2188 113.734 13.3438C114.828 14.4688 115.375 15.8906 115.375 17.6094C115.375 19.3594 114.828 20.7969 113.734 21.9219C112.641 23.0469 111.266 23.6094 109.609 23.6094C107.953 23.6094 106.562 23.0469 105.437 21.9219C104.344 20.7969 103.797 19.3594 103.797 17.6094ZM105.906 17.6094C105.906 18.8281 106.266 19.8125 106.984 20.5625C107.703 21.3125 108.578 21.6875 109.609 21.6875C110.641 21.6875 111.516 21.3125 112.234 20.5625C112.953 19.8125 113.297 18.8281 113.266 17.6094C113.266 16.4219 112.922 15.4531 112.234 14.7031C111.516 13.9531 110.641 13.5781 109.609 13.5781C108.578 13.5781 107.703 13.9531 106.984 14.7031C106.266 15.4531 105.906 16.4219 105.906 17.6094ZM118.984 23.2344H116.875V11.9844H118.891V13.8594H118.984C119.203 13.2344 119.656 12.7188 120.344 12.3125C121.031 11.9063 121.687 11.6875 122.312 11.6563C122.906 11.6563 123.422 11.75 123.859 11.9375L123.203 14C122.953 13.9063 122.547 13.8594 121.984 13.8594C121.172 13.8594 120.469 14.1719 119.875 14.7969C119.281 15.4219 118.984 16.1719 118.984 17.0469V23.2344ZM134.734 23.2344H132.156L128.687 17.9375L126.953 19.6719V23.2344H124.844V6.82812H126.953V16.9531L131.828 11.9844H134.5V12.0781L130.141 16.4375L134.734 23.1406V23.2344Z" fill="#5F6368"/>
<path d="M143.875 20.1406C143.875 21.1094 143.453 21.9375 142.609 22.625C141.766 23.3125 140.672 23.6406 139.328 23.6094C138.203 23.6094 137.219 23.3125 136.375 22.7188C135.544 22.1591 134.906 21.3571 134.547 20.4219L136.422 19.625C136.703 20.2812 137.094 20.7969 137.594 21.1719C138.097 21.5406 138.705 21.7378 139.328 21.7344C140.016 21.7344 140.578 21.5938 141.016 21.3125C141.453 21.0312 141.687 20.6875 141.719 20.2812C141.719 19.5625 141.172 19.0313 140.078 18.6875L138.109 18.2188C135.922 17.6562 134.828 16.5937 134.828 15.0312C134.828 14 135.25 13.1719 136.094 12.5469C136.937 11.9219 138 11.6094 139.281 11.6094C140.281 11.6094 141.187 11.8594 142 12.3594C142.812 12.8594 143.375 13.4844 143.687 14.2344L141.812 15.0312C141.601 14.5537 141.239 14.1585 140.781 13.9062C140.276 13.6407 139.711 13.5115 139.141 13.5312C138.615 13.5084 138.094 13.6387 137.641 13.9062C137.203 14.1875 136.984 14.5312 136.984 14.9375C136.984 15.5938 137.594 16.0469 138.812 16.2969L140.5 16.7656C142.75 17.2969 143.875 18.4219 143.875 20.1406ZM151.187 23.6094C150.375 23.6094 149.625 23.4375 148.937 23.0938C148.25 22.75 147.734 22.2813 147.391 21.6875H147.297L147.391 23.2344V28.2031H145.281V11.9844H147.297V13.5781H147.391C147.734 12.9844 148.25 12.5156 148.937 12.1719C149.625 11.8281 150.391 11.6562 151.234 11.6562C152.703 11.6562 153.953 12.2344 154.984 13.3906C156.047 14.5469 156.578 15.9531 156.578 17.6094C156.578 19.2969 156.047 20.7188 154.984 21.875C153.953 23.0312 152.703 23.6094 151.234 23.6094H151.187ZM150.859 21.6875C151.891 21.6875 152.75 21.3125 153.437 20.5625C154.125 19.8125 154.469 18.8281 154.469 17.6094C154.469 16.4531 154.125 15.4844 153.437 14.7031C152.75 13.9219 151.891 13.5469 150.859 13.5781C149.828 13.5781 148.969 13.9531 148.281 14.7031C147.625 15.4844 147.297 16.4531 147.297 17.6094C147.297 18.8281 147.625 19.8125 148.281 20.5625C148.969 21.3125 149.828 21.6875 150.859 21.6875ZM162.344 11.6562C163.906 11.6562 165.141 12.0625 166.047 12.875C166.953 13.6875 167.406 14.8281 167.406 16.2969V23.2344H165.391V21.6875H165.297C164.422 22.9688 163.25 23.6094 161.781 23.6094C160.562 23.6094 159.531 23.25 158.687 22.5312C157.844 21.8125 157.422 20.8906 157.422 19.7656C157.422 18.6094 157.859 17.6875 158.734 17C159.609 16.3125 160.797 15.9688 162.297 15.9688C163.547 15.9688 164.578 16.1875 165.391 16.625V16.1562C165.391 15.4062 165.094 14.7813 164.5 14.2812C163.944 13.7907 163.226 13.5236 162.484 13.5312C161.297 13.5312 160.359 14.0312 159.672 15.0312L157.797 13.8594C158.828 12.3906 160.344 11.6562 162.344 11.6562ZM159.625 19.8125C159.625 20.375 159.859 20.8281 160.328 21.1719C160.797 21.5156 161.344 21.7031 161.969 21.7344C162.844 21.7344 163.625 21.4062 164.312 20.75C165 20.0938 165.359 19.3281 165.391 18.4531C164.734 17.9219 163.812 17.6562 162.625 17.6562C161.781 17.6562 161.062 17.8594 160.469 18.2656C159.875 18.6719 159.594 19.1875 159.625 19.8125ZM174.578 23.6094C172.891 23.6094 171.5 23.0469 170.406 21.9219C169.312 20.7656 168.766 19.3281 168.766 17.6094C168.766 15.8906 169.312 14.4688 170.406 13.3438C171.5 12.2188 172.891 11.6562 174.578 11.6562C175.734 11.6562 176.734 11.9375 177.578 12.5C178.422 13.0625 179.062 13.8594 179.5 14.8906L177.578 15.6875C176.984 14.2812 175.937 13.5781 174.437 13.5781C173.469 13.5781 172.625 13.9688 171.906 14.75C171.219 15.5312 170.875 16.4844 170.875 17.6094C170.875 18.7344 171.219 19.7031 171.906 20.5156C172.625 21.2969 173.469 21.6875 174.437 21.6875C175.969 21.6875 177.047 20.9844 177.672 19.5781L179.594 20.375C179.156 21.4062 178.5 22.2031 177.625 22.7656C176.75 23.3281 175.734 23.6094 174.578 23.6094ZM185.922 23.6094C184.266 23.6094 182.906 23.0469 181.844 21.9219C180.781 20.7969 180.25 19.3594 180.25 17.6094C180.25 15.9219 180.766 14.5 181.797 13.3438C182.828 12.1875 184.156 11.625 185.781 11.6562C187.469 11.6562 188.797 12.1875 189.766 13.25C190.734 14.3125 191.234 15.8281 191.266 17.7969V18.0312H182.406C182.437 19.125 182.797 20.0156 183.484 20.7031C184.172 21.3906 185.016 21.7188 186.016 21.6875C187.359 21.6875 188.422 21.0156 189.203 19.6719L191.078 20.6094C190.591 21.524 189.861 22.2864 188.969 22.8125C188.094 23.3437 187.078 23.6094 185.922 23.6094ZM182.547 16.25H189.016C188.953 15.4688 188.641 14.8281 188.078 14.3281C187.516 13.8281 186.734 13.5781 185.734 13.5781C184.953 13.5781 184.281 13.8125 183.719 14.2812C183.156 14.75 182.766 15.4062 182.547 16.25Z" fill="#5F6368"/>
<path d="M13.4687 16.0625V13.4844H22C22.0978 14.0099 22.1449 14.5436 22.1406 15.0781C22.1406 16.9531 21.625 19.3438 19.9375 20.9844C18.2969 22.7188 16.2344 23.6094 13.4219 23.6094C8.3125 23.6094 4 19.4375 4 14.3281C4 9.21875 8.3125 5 13.4219 5C16.2812 5 18.2969 6.125 19.8437 7.57813L18.0156 9.35938C17.0634 8.45058 15.863 7.84453 14.5664 7.61784C13.2697 7.39116 11.935 7.55402 10.7309 8.08583C9.52677 8.61764 8.50738 9.49453 7.80158 10.6056C7.09579 11.7167 6.73527 13.0122 6.76562 14.3281C6.76562 18.0781 9.71875 21.0781 13.4219 21.0781C15.8594 21.0781 17.2656 20.0938 18.1562 19.2031C18.8594 18.5 19.3281 17.4688 19.5156 16.0625H13.4687Z" fill="#4285F4"/>
<path d="M35.125 17.6094C35.125 21.0781 32.4062 23.6094 29.0781 23.6094C25.75 23.6094 23.0781 21.0781 23.0781 17.6094C23.0781 14.1406 25.7969 11.6094 29.0781 11.6094C32.3594 11.6094 35.125 14.1406 35.125 17.6094ZM32.4531 17.6094C32.4531 15.4531 30.9062 14 29.0781 14C27.25 14 25.7031 15.4531 25.7031 17.6094C25.7031 19.7656 27.2969 21.2656 29.0781 21.2656C30.8594 21.2656 32.4531 19.7656 32.4531 17.6094Z" fill="#EA4335"/>
<path d="M48.25 17.6094C48.25 21.0781 45.5312 23.6094 42.2031 23.6094C38.875 23.6094 36.2031 21.0781 36.2031 17.6094C36.2031 14.1406 38.9219 11.6094 42.2031 11.6094C45.4844 11.6094 48.25 14.1406 48.25 17.6094ZM45.5781 17.6094C45.5781 15.4531 44.0312 14 42.2031 14C40.375 14 38.8281 15.4531 38.8281 17.6094C38.8281 19.7656 40.4219 21.2656 42.2031 21.2656C43.9844 21.2656 45.5781 19.7656 45.5781 17.6094Z" fill="#FBBC04"/>
<path d="M60.8125 11.9844V22.7656C60.8125 27.1719 58.1875 29 55.0938 29C52.1875 29 50.4531 27.0312 49.7969 25.4375L52.0938 24.5C52.5156 25.4844 53.5 26.6562 55.0938 26.6562C57.1094 26.6562 58.3281 25.3906 58.3281 23.1406V22.25H58.2344C57.8355 22.6967 57.3431 23.0501 56.7922 23.2851C56.2413 23.52 55.6454 23.6307 55.0469 23.6094C52.0938 23.6094 49.3281 20.9844 49.3281 17.6562C49.3281 14.2812 52.0938 11.6094 55.0469 11.6094C56.5 11.6094 57.625 12.2656 58.2344 12.9687H58.3281V11.9844H60.8125ZM58.5156 17.6562C58.5156 15.5469 57.1094 14 55.2813 14C53.5 14 51.9531 15.5469 51.9531 17.6562C51.9531 19.7187 53.5 21.2656 55.2813 21.2656C57.1094 21.2656 58.5156 19.7187 58.5156 17.6562Z" fill="#4285F4"/>
<path d="M62.6406 5.70312H65.2656V23.2812H62.6406V5.70312Z" fill="#34A853"/>
<path d="M75.4375 19.5781L77.5 20.9844C76.8438 21.9219 75.25 23.6094 72.4844 23.6094C69.0625 23.6094 66.5312 20.9844 66.5312 17.6094C66.5312 14.0469 69.1094 11.6094 72.2031 11.6094C75.2969 11.6094 76.8438 14.0938 77.3125 15.4531L77.5938 16.1094L69.5781 19.4375C70.1875 20.6563 71.125 21.2656 72.4844 21.2656C73.8438 21.2656 74.7344 20.6094 75.4375 19.5781ZM69.1562 17.4219L74.5 15.2188C74.2188 14.4688 73.3281 13.9531 72.2969 13.9531C70.9375 13.9531 69.0625 15.125 69.1562 17.4219Z" fill="#EA4335"/>
</g>
<defs>
<clipPath id="clip0_1584_8456">
<rect width="187.266" height="24" fill="white" transform="translate(4 5)"/>
</clipPath>
</defs>
</svg>
