<svg width="24" height="25" viewBox="0 0 24 25" fill="none" xmlns="http://www.w3.org/2000/svg"><path fill-rule="evenodd" clip-rule="evenodd" d="M20.896 22.85c.61 0 1.104-.495 1.104-1.104V3.953c0-.61-.494-1.103-1.104-1.103H3.104C2.494 2.85 2 3.344 2 3.953v17.793c0 .61.494 1.104 1.104 1.104h17.792z" fill="#5F6368"/><path fill-rule="evenodd" clip-rule="evenodd" d="M15.794 22.85v-7.742h2.599l.389-3.018h-2.988v-1.926c0-.874.243-1.469 1.495-1.469h1.598v-2.7a21.383 21.383 0 0 0-2.328-.118c-2.304 0-3.88 1.406-3.88 3.988v2.225h-2.606v3.018h2.605v7.741h3.116z" fill="#fff"/></svg>