<svg width="96" height="96" viewBox="0 0 96 96" fill="none" xmlns="http://www.w3.org/2000/svg">
<path d="M50 26V44C50 45.105 50.895 46 52 46H70C70 40.475 68.76 34.475 65.14 30.86C61.525 27.24 55.525 26 50 26Z" fill="#00832D"/>
<path d="M69.63 85.62C61.235 86.995 51.05 84.525 41.32 78.685L44.595 71.41L52.005 68L63.625 74.62L69.63 85.62Z" fill="#00832D"/>
<path d="M11.38 27.38C9.99999 35.77 12.47 45.955 18.315 55.685L25.82 52.18L29 45L22.71 34.71L11.38 27.38Z" fill="#00832D"/>
<path d="M53 11C51.345 11 50 12.345 50 14V26C61.045 26 70 34.955 70 46H82C83.655 46 85 44.655 85 43C85 25.325 70.675 11 53 11Z" fill="#34A853"/>
<path d="M82.16 78.74C83.735 77.22 83.8 74.72 82.3 73.125L67.83 57.695C66.255 56.195 63.775 56.23 62.24 57.765L52.015 68.005L69.63 85.625C74.39 84.935 77.96 82.9 81.21 79.655L82.16 78.74Z" fill="#34A853"/>
<path d="M18.315 55.685C20.965 60.06 24.475 64.485 28.445 68.475C32.425 72.46 36.945 76.035 41.325 78.685L52.02 68.005L29 45" fill="#34A853"/>
<path d="M36.705 37.53L36.73 37.555L38.345 35.93C40.305 33.97 40.305 30.785 38.345 28.815L24.785 15.22C22.825 13.26 19.635 13.26 17.68 15.22L17.195 15.55C14.045 18.705 12.135 22.775 11.38 27.38L29 45L36.705 37.53Z" fill="#34A853"/>
</svg>
