<svg width="96" height="96" viewBox="0 0 96 96" fill="none" xmlns="http://www.w3.org/2000/svg">
<path d="M54 48L62.53 57.75L74 65.08L76 48.065L74 31.425L62.31 37.865L54 48Z" fill="#00832D"/>
<path d="M4.5 63.5V78C4.5 81.315 7.185 84 10.5 84H25L28 73.04L25 63.5L15.05 60.5L4.5 63.5Z" fill="#0066DA"/>
<path d="M25 12L4.5 32.5L15.05 35.5L25 32.5L27.95 23.085L25 12Z" fill="#E94235"/>
<path d="M25 32.5H4.5V63.5H25V32.5Z" fill="#2684FC"/>
<path d="M87.095 20.68L74 31.425V65.08L87.15 75.865C89.12 77.405 92 76 92 73.5V23C92 20.465 89.055 19.075 87.095 20.68Z" fill="#00AC47"/>
<path d="M54 48V63.5H25V84H68C71.315 84 74 81.315 74 78V65.08L54 48Z" fill="#00AC47"/>
<path d="M68 12H52.315H25V32.5H54V48L74 31.425V18C74 14.685 71.315 12 68 12Z" fill="#FFBA00"/>
</svg>
