<svg xmlns="http://www.w3.org/2000/svg" enable-background="new 0 0 192 192" height="192" viewBox="0 0 192 192" width="192"><rect fill="none" height="192" width="192"/><g><g><path d="M164.03,29h-42.41l-17.11,24.31L94.33,77.4l27.29,3.08l28.34-2.97l21.04-36.43 C174.11,35.71,170.23,29,164.03,29z" fill="#1967D2"/><path d="M21.01,41.11l17.63,30.22c2.16,3.7,6.12,5.98,10.41,5.99l45.29,0.09L121.63,29H27.97 C21.75,29,17.88,35.74,21.01,41.11z" fill="#4285F4"/><path d="M103.32,158.96c-3.07,5.34-10.75,5.4-13.9,0.11l-17.55-29.46c-2.22-3.72-2.27-8.34-0.14-12.11L94.33,77.4 l55.63,0.11L103.32,158.96z" fill="#4285F4"/></g></g></svg>